# xmcd
#
# Track frame offsets:
#	182
#	19560
#	35267
#
# Disc length: 647 seconds
#
# Revision: 0
# Processed by: cddbd v1.5PL3 Copyright (c) Steve Scherf et al.
# Submitted via: audiograbber 1.81.01
#
DISCID=15028503
DTITLE=Chris de Burgh - Forevermore
DYEAR=1997
DGENRE=POP
TTITLE0=Forevermore
TTITLE1=Here Is Your Paradise
TTITLE2=Much More Than This
EXTD=MaxiCD
EXTT0=
EXTT1=
EXTT2=
PLAYORDER=
